<svg id="drawing" xmlns="http://www.w3.org/2000/svg" version="1.1" xmlns:xlink="http://www.w3.org/1999/xlink" width="484.5" height="690" viewBox="169.5 44 484.5 690"><defs id="SvgjsDefs1001"><marker id="SvgjsMarker1111" markerWidth="16.23606797749979" markerHeight="10.550836550532098" refX="-1" refY="3.8990363547948754" viewBox="-1 -1.3763819204711738 16.23606797749979 10.550836550532098" orient="auto" markerUnits="userSpaceOnUse"><path id="SvgjsPath1112" d="M12 3.899036407470703L0 7.798072814941406V0Z " stroke="#323232" stroke-width="2" fill="#323232" transform="matrix(1,0,0,1,0,0)"></path></marker><marker id="SvgjsMarker1118" markerWidth="16.23606797749979" markerHeight="10.550836550532098" refX="-1" refY="3.8990363547948754" viewBox="-1 -1.3763819204711738 16.23606797749979 10.550836550532098" orient="auto" markerUnits="userSpaceOnUse"><path id="SvgjsPath1119" d="M12 3.899036407470703L0 7.798072814941406V0Z " stroke="#323232" stroke-width="2" fill="#323232" transform="matrix(1,0,0,1,0,0)"></path></marker><marker id="SvgjsMarker1125" markerWidth="16.23606797749979" markerHeight="10.550836550532098" refX="-1" refY="3.8990363547948754" viewBox="-1 -1.3763819204711738 16.23606797749979 10.550836550532098" orient="auto" markerUnits="userSpaceOnUse"><path id="SvgjsPath1126" d="M12 3.899036407470703L0 7.798072814941406V0Z " stroke="#323232" stroke-width="2" fill="#323232" transform="matrix(1,0,0,1,0,0)"></path></marker><marker id="SvgjsMarker1132" markerWidth="16.23606797749979" markerHeight="10.550836550532098" refX="-1" refY="3.8990363547948754" viewBox="-1 -1.3763819204711738 16.23606797749979 10.550836550532098" orient="auto" markerUnits="userSpaceOnUse"><path id="SvgjsPath1133" d="M12 3.899036407470703L0 7.798072814941406V0Z " stroke="#323232" stroke-width="2" fill="#323232" transform="matrix(1,0,0,1,0,0)"></path></marker><marker id="SvgjsMarker1139" markerWidth="16.23606797749979" markerHeight="10.550836550532098" refX="-1" refY="3.8990363547948754" viewBox="-1 -1.3763819204711738 16.23606797749979 10.550836550532098" orient="auto" markerUnits="userSpaceOnUse"><path id="SvgjsPath1140" d="M12 3.899036407470703L0 7.798072814941406V0Z " stroke="#323232" stroke-width="2" fill="#323232" transform="matrix(1,0,0,1,0,0)"></path></marker><marker id="SvgjsMarker1146" markerWidth="16.23606797749979" markerHeight="10.550836550532098" refX="-1" refY="3.8990363547948754" viewBox="-1 -1.3763819204711738 16.23606797749979 10.550836550532098" orient="auto" markerUnits="userSpaceOnUse"><path id="SvgjsPath1147" d="M12 3.899036407470703L0 7.798072814941406V0Z " stroke="#323232" stroke-width="2" fill="#323232" transform="matrix(1,0,0,1,0,0)"></path></marker><marker id="SvgjsMarker1157" markerWidth="16.23606797749979" markerHeight="10.550836550532098" refX="-1" refY="3.8990363547948754" viewBox="-1 -1.3763819204711738 16.23606797749979 10.550836550532098" orient="auto" markerUnits="userSpaceOnUse"><path id="SvgjsPath1158" d="M12 3.899036407470703L0 7.798072814941406V0Z " stroke="#323232" stroke-width="2" fill="#323232" transform="matrix(1,0,0,1,0,0)"></path></marker><marker id="SvgjsMarker1164" markerWidth="16.23606797749979" markerHeight="10.550836550532098" refX="-1" refY="3.8990363547948754" viewBox="-1 -1.3763819204711738 16.23606797749979 10.550836550532098" orient="auto" markerUnits="userSpaceOnUse"><path id="SvgjsPath1165" d="M12 3.899036407470703L0 7.798072814941406V0Z " stroke="#323232" stroke-width="2" fill="#323232" transform="matrix(1,0,0,1,0,0)"></path></marker><marker id="SvgjsMarker1171" markerWidth="16.23606797749979" markerHeight="10.550836550532098" refX="-1" refY="3.8990363547948754" viewBox="-1 -1.3763819204711738 16.23606797749979 10.550836550532098" orient="auto" markerUnits="userSpaceOnUse"><path id="SvgjsPath1172" d="M12 3.899036407470703L0 7.798072814941406V0Z " stroke="#323232" stroke-width="2" fill="#323232" transform="matrix(1,0,0,1,0,0)"></path></marker><marker id="SvgjsMarker1178" markerWidth="16.23606797749979" markerHeight="10.550836550532098" refX="-1" refY="3.8990363547948754" viewBox="-1 -1.3763819204711738 16.23606797749979 10.550836550532098" orient="auto" markerUnits="userSpaceOnUse"><path id="SvgjsPath1179" d="M12 3.899036407470703L0 7.798072814941406V0Z " stroke="#323232" stroke-width="2" fill="#323232" transform="matrix(1,0,0,1,0,0)"></path></marker><marker id="SvgjsMarker1185" markerWidth="16.23606797749979" markerHeight="10.550836550532098" refX="-1" refY="3.8990363547948754" viewBox="-1 -1.3763819204711738 16.23606797749979 10.550836550532098" orient="auto" markerUnits="userSpaceOnUse"><path id="SvgjsPath1186" d="M12 3.899036407470703L0 7.798072814941406V0Z " stroke="#323232" stroke-width="2" fill="#323232" transform="matrix(1,0,0,1,0,0)"></path></marker><marker id="SvgjsMarker1192" markerWidth="16.23606797749979" markerHeight="10.550836550532098" refX="-1" refY="3.8990363547948754" viewBox="-1 -1.3763819204711738 16.23606797749979 10.550836550532098" orient="auto" markerUnits="userSpaceOnUse"><path id="SvgjsPath1193" d="M12 3.899036407470703L0 7.798072814941406V0Z " stroke="#323232" stroke-width="2" fill="#323232" transform="matrix(1,0,0,1,0,0)"></path></marker><marker id="SvgjsMarker1199" markerWidth="16.23606797749979" markerHeight="10.550836550532098" refX="-1" refY="3.8990363547948754" viewBox="-1 -1.3763819204711738 16.23606797749979 10.550836550532098" orient="auto" markerUnits="userSpaceOnUse"><path id="SvgjsPath1200" d="M12 3.899036407470703L0 7.798072814941406V0Z " stroke="#323232" stroke-width="2" fill="#323232" transform="matrix(1,0,0,1,0,0)"></path></marker><marker id="SvgjsMarker1206" markerWidth="16.23606797749979" markerHeight="10.550836550532098" refX="-1" refY="3.8990363547948754" viewBox="-1 -1.3763819204711738 16.23606797749979 10.550836550532098" orient="auto" markerUnits="userSpaceOnUse"><path id="SvgjsPath1207" d="M12 3.899036407470703L0 7.798072814941406V0Z " stroke="#323232" stroke-width="2" fill="#323232" transform="matrix(1,0,0,1,0,0)"></path></marker></defs><g id="SvgjsG1007"><path id="SvgjsPath1008" d="M169.5 44H654V734H169.5V44Z " fill-opacity="0" fill="none"></path><g id="SvgjsG1009"><g id="SvgjsG1010" transform="translate(332.5 597)" opacity="1"><path id="SvgjsPath1011" d="M0 4Q0 0 4 0L226.5 0Q230.5 0 230.5 4L230.5 52Q230.5 56 226.5 56L4 56Q0 56 0 52Z " stroke-dasharray="none" stroke="#323232" stroke-width="2" fill="#ffffff" opacity="1"></path><g id="SvgjsG1012" transform="matrix(1 0 0 1 10 11.75)" fill="#ffffff"><text id="SvgjsText1013" font-family="微软雅黑,黑体,Arial,宋体" fill="#000000" font-size="13" font-weight="normal" font-style="normal" text-anchor="start" text-decoration="blink" x="0" y="14">Kernel</text><text id="SvgjsText1014" font-family="微软雅黑,黑体,Arial,宋体" fill="#000000" font-size="13" font-weight="normal" font-style="normal" text-anchor="start" text-decoration="blink" x="0" y="16.25"></text></g></g><g id="SvgjsG1015" transform="translate(509 265)" opacity="1"><path id="SvgjsPath1016" d="M0 4Q0 0 4 0L78 0Q82 0 82 4L82 113Q82 117 78 117L4 117Q0 117 0 113Z " stroke-dasharray="none" stroke="#323232" stroke-width="2" fill="#ffffff" opacity="1"></path><g id="SvgjsG1017" transform="matrix(1 0 0 1 10 1.625)" fill="#ffffff"><text id="SvgjsText1018" font-family="微软雅黑,黑体,Arial,宋体" fill="#000000" font-size="13" font-weight="normal" font-style="normal" text-anchor="start" text-decoration="blink" x="0" y="14">Mesa</text><text id="SvgjsText1019" font-family="微软雅黑,黑体,Arial,宋体" fill="#000000" font-size="13" font-weight="normal" font-style="normal" text-anchor="start" text-decoration="blink" x="0" y="16.25"></text><text id="SvgjsText1020" font-family="微软雅黑,黑体,Arial,宋体" fill="#000000" font-size="13" font-weight="normal" font-style="normal" text-anchor="start" text-decoration="blink" x="0" y="32.5"></text><text id="SvgjsText1021" font-family="微软雅黑,黑体,Arial,宋体" fill="#000000" font-size="13" font-weight="normal" font-style="normal" text-anchor="start" text-decoration="blink" x="0" y="48.75"></text><text id="SvgjsText1022" font-family="微软雅黑,黑体,Arial,宋体" fill="#000000" font-size="13" font-weight="normal" font-style="normal" text-anchor="start" text-decoration="blink" x="0" y="65"></text><text id="SvgjsText1023" font-family="微软雅黑,黑体,Arial,宋体" fill="#000000" font-size="13" font-weight="normal" font-style="normal" text-anchor="start" text-decoration="blink" x="0" y="81.25"></text><text id="SvgjsText1024" font-family="微软雅黑,黑体,Arial,宋体" fill="#000000" font-size="13" font-weight="normal" font-style="normal" text-anchor="start" text-decoration="blink" x="0" y="97.5"></text></g></g><g id="SvgjsG1025" transform="translate(189.5 338)" opacity="1"><path id="SvgjsPath1026" d="M0 4Q0 0 4 0L174.5 0Q178.5 0 178.5 4L178.5 135Q178.5 139 174.5 139L4 139Q0 139 0 135Z " stroke-dasharray="none" stroke="#323232" stroke-width="2" fill="#ffffff" opacity="1"></path><g id="SvgjsG1027" transform="matrix(1 0 0 1 10 -3.625)" fill="#ffffff"><text id="SvgjsText1028" font-family="微软雅黑,黑体,Arial,宋体" fill="#000000" font-size="13" font-weight="normal" font-style="normal" text-anchor="start" text-decoration="blink" x="0" y="14">Xorg</text><text id="SvgjsText1029" font-family="微软雅黑,黑体,Arial,宋体" fill="#000000" font-size="13" font-weight="normal" font-style="normal" text-anchor="start" text-decoration="blink" x="0" y="16.25"></text><text id="SvgjsText1030" font-family="微软雅黑,黑体,Arial,宋体" fill="#000000" font-size="13" font-weight="normal" font-style="normal" text-anchor="start" text-decoration="blink" x="0" y="32.5"></text><text id="SvgjsText1031" font-family="微软雅黑,黑体,Arial,宋体" fill="#000000" font-size="13" font-weight="normal" font-style="normal" text-anchor="start" text-decoration="blink" x="0" y="48.75"></text><text id="SvgjsText1032" font-family="微软雅黑,黑体,Arial,宋体" fill="#000000" font-size="13" font-weight="normal" font-style="normal" text-anchor="start" text-decoration="blink" x="0" y="65"></text><text id="SvgjsText1033" font-family="微软雅黑,黑体,Arial,宋体" fill="#000000" font-size="13" font-weight="normal" font-style="normal" text-anchor="start" text-decoration="blink" x="0" y="81.25"></text><text id="SvgjsText1034" font-family="微软雅黑,黑体,Arial,宋体" fill="#000000" font-size="13" font-weight="normal" font-style="normal" text-anchor="start" text-decoration="blink" x="0" y="97.5"></text><text id="SvgjsText1035" font-family="微软雅黑,黑体,Arial,宋体" fill="#000000" font-size="13" font-weight="normal" font-style="normal" text-anchor="start" text-decoration="blink" x="0" y="113.75"></text><text id="SvgjsText1036" font-family="微软雅黑,黑体,Arial,宋体" fill="#000000" font-size="13" font-weight="normal" font-style="normal" text-anchor="start" text-decoration="blink" x="0" y="130"></text></g></g><g id="SvgjsG1037" transform="translate(244 64)" opacity="1"><path id="SvgjsPath1038" d="M0 4Q0 0 4 0L110 0Q114 0 114 4L114 26Q114 30 110 30L4 30Q0 30 0 26Z " stroke-dasharray="none" stroke="#323232" stroke-width="2" fill="#ffffff" opacity="1"></path><g id="SvgjsG1039" transform="matrix(1 0 0 1 10 6.875)" fill="#ffffff"><text id="SvgjsText1040" font-family="微软雅黑,黑体,Arial,宋体" fill="#000000" font-size="13" font-weight="normal" font-style="normal" text-anchor="middle" text-decoration="blink" x="47" y="14">2D Application</text></g></g><g id="SvgjsG1041" transform="translate(513 292)" opacity="1"><path id="SvgjsPath1042" d="M0 4Q0 0 4 0L70 0Q74 0 74 4L74 28Q74 32 70 32L4 32Q0 32 0 28Z " stroke-dasharray="none" stroke="#323232" stroke-width="2" fill="#ffffff" opacity="1"></path><g id="SvgjsG1043" transform="matrix(1 0 0 1 10 7.875)" fill="#ffffff"><text id="SvgjsText1044" font-family="微软雅黑,黑体,Arial,宋体" fill="#000000" font-size="13" font-weight="normal" font-style="normal" text-anchor="middle" text-decoration="blink" x="27" y="14">LibGL</text></g></g><g id="SvgjsG1045" transform="translate(513 333)" opacity="1"><path id="SvgjsPath1046" d="M0 4Q0 0 4 0L70 0Q74 0 74 4L74 28Q74 32 70 32L4 32Q0 32 0 28Z " stroke-dasharray="none" stroke="#323232" stroke-width="2" fill="#ffffff" opacity="1"></path><g id="SvgjsG1047" transform="matrix(1 0 0 1 10 -0.25)" fill="#ffffff"><text id="SvgjsText1048" font-family="微软雅黑,黑体,Arial,宋体" fill="#000000" font-size="13" font-weight="normal" font-style="normal" text-anchor="middle" text-decoration="blink" x="27" y="14">DRI Driv</text><text id="SvgjsText1049" font-family="微软雅黑,黑体,Arial,宋体" fill="#000000" font-size="13" font-weight="normal" font-style="normal" text-anchor="middle" text-decoration="blink" x="27" y="30.25">er</text></g></g><g id="SvgjsG1050" transform="translate(388 492)" opacity="1"><path id="SvgjsPath1051" d="M0 4Q0 0 4 0L81 0Q85 0 85 4L85 26Q85 30 81 30L4 30Q0 30 0 26Z " stroke-dasharray="none" stroke="#323232" stroke-width="2" fill="#ffffff" opacity="1"></path><g id="SvgjsG1052" transform="matrix(1 0 0 1 10 6.875)" fill="#ffffff"><text id="SvgjsText1053" font-family="微软雅黑,黑体,Arial,宋体" fill="#000000" font-size="13" font-weight="normal" font-style="normal" text-anchor="middle" text-decoration="blink" x="32.5" y="14">LibDRM</text></g></g><g id="SvgjsG1054" transform="translate(415.681891025641 609.5)" opacity="1"><path id="SvgjsPath1055" d="M0 4Q0 0 4 0L99.13621520996094 0Q103.13621520996094 0 103.13621520996094 4L103.13621520996094 27Q103.13621520996094 31 99.13621520996094 31L4 31Q0 31 0 27Z " stroke-dasharray="none" stroke="#323232" stroke-width="2" fill="#ffffff" opacity="1"></path><g id="SvgjsG1056" transform="matrix(1 0 0 1 10 7.375)" fill="#ffffff"><text id="SvgjsText1057" font-family="微软雅黑,黑体,Arial,宋体" fill="#000000" font-size="13" font-weight="normal" font-style="normal" text-anchor="middle" text-decoration="blink" x="41.56810897435898" y="14">DRM</text></g></g><g id="SvgjsG1058" transform="translate(198.5 680)" opacity="1"><path id="SvgjsPath1059" d="M0 4Q0 0 4 0L431.5 0Q435.5 0 435.5 4L435.5 30Q435.5 34 431.5 34L4 34Q0 34 0 30Z " stroke-dasharray="none" stroke="#323232" stroke-width="2" fill="#ffffff" opacity="1"></path><g id="SvgjsG1060" transform="matrix(1 0 0 1 10 8.875)" fill="#ffffff"><text id="SvgjsText1061" font-family="微软雅黑,黑体,Arial,宋体" fill="#000000" font-size="13" font-weight="normal" font-style="normal" text-anchor="middle" text-decoration="blink" x="207.75" y="14">Graphic HardWare(GPU)</text></g></g><g id="SvgjsG1062" transform="translate(238.25 265)" opacity="1"><path id="SvgjsPath1063" d="M0 4Q0 0 4 0L76 0Q80 0 80 4L80 26Q80 30 76 30L4 30Q0 30 0 26Z " stroke-dasharray="none" stroke="#323232" stroke-width="2" fill="#ffffff" opacity="1"></path><g id="SvgjsG1064" transform="matrix(1 0 0 1 10 -1.25)" fill="#ffffff"><text id="SvgjsText1065" font-family="微软雅黑,黑体,Arial,宋体" fill="#000000" font-size="13" font-weight="normal" font-style="normal" text-anchor="middle" text-decoration="blink" x="30" y="14">Xlib(Xcb</text><text id="SvgjsText1066" font-family="微软雅黑,黑体,Arial,宋体" fill="#000000" font-size="13" font-weight="normal" font-style="normal" text-anchor="middle" text-decoration="blink" x="30" y="30.25">)</text></g></g><g id="SvgjsG1067" transform="translate(222.5 115)" opacity="1"><path id="SvgjsPath1068" d="M0 4Q0 0 4 0L153 0Q157 0 157 4L157 107Q157 111 153 111L4 111Q0 111 0 107Z " stroke-dasharray="none" stroke="#323232" stroke-width="2" fill="#ffffff" opacity="1"></path><g id="SvgjsG1069" transform="matrix(1 0 0 1 10 -1.375)" fill="#ffffff"><text id="SvgjsText1070" font-family="微软雅黑,黑体,Arial,宋体" fill="#000000" font-size="13" font-weight="normal" font-style="normal" text-anchor="start" text-decoration="blink" x="0" y="14">ToolKit</text><text id="SvgjsText1071" font-family="微软雅黑,黑体,Arial,宋体" fill="#000000" font-size="13" font-weight="normal" font-style="normal" text-anchor="start" text-decoration="blink" x="0" y="16.25"></text><text id="SvgjsText1072" font-family="微软雅黑,黑体,Arial,宋体" fill="#000000" font-size="13" font-weight="normal" font-style="normal" text-anchor="start" text-decoration="blink" x="0" y="32.5"></text><text id="SvgjsText1073" font-family="微软雅黑,黑体,Arial,宋体" fill="#000000" font-size="13" font-weight="normal" font-style="normal" text-anchor="start" text-decoration="blink" x="0" y="48.75"></text><text id="SvgjsText1074" font-family="微软雅黑,黑体,Arial,宋体" fill="#000000" font-size="13" font-weight="normal" font-style="normal" text-anchor="start" text-decoration="blink" x="0" y="65"></text><text id="SvgjsText1075" font-family="微软雅黑,黑体,Arial,宋体" fill="#000000" font-size="13" font-weight="normal" font-style="normal" text-anchor="start" text-decoration="blink" x="0" y="81.25"></text><text id="SvgjsText1076" font-family="微软雅黑,黑体,Arial,宋体" fill="#000000" font-size="13" font-weight="normal" font-style="normal" text-anchor="start" text-decoration="blink" x="0" y="97.5"></text></g></g><g id="SvgjsG1077" transform="translate(225.5 142)" opacity="1"><path id="SvgjsPath1078" d="M0 4Q0 0 4 0L70 0Q74 0 74 4L74 28Q74 32 70 32L4 32Q0 32 0 28Z " stroke-dasharray="none" stroke="#323232" stroke-width="2" fill="#ffffff" opacity="1"></path><g id="SvgjsG1079" transform="matrix(1 0 0 1 10 7.875)" fill="#ffffff"><text id="SvgjsText1080" font-family="微软雅黑,黑体,Arial,宋体" fill="#000000" font-size="13" font-weight="normal" font-style="normal" text-anchor="middle" text-decoration="blink" x="27" y="14">GTK+</text></g></g><g id="SvgjsG1081" transform="translate(324.5 142)" opacity="1"><path id="SvgjsPath1082" d="M0 4Q0 0 4 0L46 0Q50 0 50 4L50 28Q50 32 46 32L4 32Q0 32 0 28Z " stroke-dasharray="none" stroke="#323232" stroke-width="2" fill="#ffffff" opacity="1"></path><g id="SvgjsG1083" transform="matrix(1 0 0 1 10 7.875)" fill="#ffffff"><text id="SvgjsText1084" font-family="微软雅黑,黑体,Arial,宋体" fill="#000000" font-size="13" font-weight="normal" font-style="normal" text-anchor="middle" text-decoration="blink" x="15" y="14">QT</text></g></g><g id="SvgjsG1085" transform="translate(225.5 190)" opacity="1"><path id="SvgjsPath1086" d="M0 4Q0 0 4 0L70 0Q74 0 74 4L74 28Q74 32 70 32L4 32Q0 32 0 28Z " stroke-dasharray="none" stroke="#323232" stroke-width="2" fill="#ffffff" opacity="1"></path><g id="SvgjsG1087" transform="matrix(1 0 0 1 10 7.875)" fill="#ffffff"><text id="SvgjsText1088" font-family="微软雅黑,黑体,Arial,宋体" fill="#000000" font-size="13" font-weight="normal" font-style="normal" text-anchor="middle" text-decoration="blink" x="27" y="14">Cairo</text></g></g><g id="SvgjsG1089" transform="translate(493 64)" opacity="1"><path id="SvgjsPath1090" d="M0 4Q0 0 4 0L110 0Q114 0 114 4L114 26Q114 30 110 30L4 30Q0 30 0 26Z " stroke-dasharray="none" stroke="#323232" stroke-width="2" fill="#ffffff" opacity="1"></path><g id="SvgjsG1091" transform="matrix(1 0 0 1 10 6.875)" fill="#ffffff"><text id="SvgjsText1092" font-family="微软雅黑,黑体,Arial,宋体" fill="#000000" font-size="13" font-weight="normal" font-style="normal" text-anchor="middle" text-decoration="blink" x="47" y="14">3D Application</text></g></g><g id="SvgjsG1093" transform="translate(194.5 360)" opacity="1"><path id="SvgjsPath1094" d="M0 4Q0 0 4 0L57 0Q61 0 61 4L61 27Q61 31 57 31L4 31Q0 31 0 27Z " stroke-dasharray="none" stroke="#323232" stroke-width="2" fill="#ffffff" opacity="1"></path><g id="SvgjsG1095" transform="matrix(1 0 0 1 10 7.375)" fill="#ffffff"><text id="SvgjsText1096" font-family="微软雅黑,黑体,Arial,宋体" fill="#000000" font-size="13" font-weight="normal" font-style="normal" text-anchor="middle" text-decoration="blink" x="20.5" y="14">DIX</text></g></g><g id="SvgjsG1097" transform="translate(194.5 397)" opacity="1"><path id="SvgjsPath1098" d="M0 4Q0 0 4 0L75 0Q79 0 79 4L79 26Q79 30 75 30L4 30Q0 30 0 26Z " stroke-dasharray="none" stroke="#323232" stroke-width="2" fill="#ffffff" opacity="1"></path><g id="SvgjsG1099" transform="matrix(1 0 0 1 10 6.875)" fill="#ffffff"><text id="SvgjsText1100" font-family="微软雅黑,黑体,Arial,宋体" fill="#000000" font-size="13" font-weight="normal" font-style="normal" text-anchor="middle" text-decoration="blink" x="29.5" y="14">EXA/XXA</text></g></g><g id="SvgjsG1101" transform="translate(198.5 439)" opacity="1"><path id="SvgjsPath1102" d="M0 4Q0 0 4 0L57 0Q61 0 61 4L61 27Q61 31 57 31L4 31Q0 31 0 27Z " stroke-dasharray="none" stroke="#323232" stroke-width="2" fill="#ffffff" opacity="1"></path><g id="SvgjsG1103" transform="matrix(1 0 0 1 10 7.375)" fill="#ffffff"><text id="SvgjsText1104" font-family="微软雅黑,黑体,Arial,宋体" fill="#000000" font-size="13" font-weight="normal" font-style="normal" text-anchor="middle" text-decoration="blink" x="20.5" y="14">DDX</text></g></g><g id="SvgjsG1105" transform="translate(436.5 143)" opacity="1"><path id="SvgjsPath1106" d="M0 4Q0 0 4 0L57.5 0Q61.5 0 61.5 4L61.5 26Q61.5 30 57.5 30L4 30Q0 30 0 26Z " stroke-dasharray="none" stroke="#323232" stroke-width="2" fill="#ffffff" opacity="1"></path><g id="SvgjsG1107" transform="matrix(1 0 0 1 10 6.875)" fill="#ffffff"><text id="SvgjsText1108" font-family="微软雅黑,黑体,Arial,宋体" fill="#000000" font-size="13" font-weight="normal" font-style="normal" text-anchor="middle" text-decoration="blink" x="20.75" y="14">GLX</text></g></g><g id="SvgjsG1109"><path id="SvgjsPath1110" d="M301 94L301 104.5L301 104.5L301 105.5 " stroke-dasharray="none" stroke="#323232" stroke-width="2" fill="none" marker-end="url(#SvgjsMarker1111)"></path><g id="SvgjsG1113" transform="matrix(1 0 0 1 301 91.625)" fill="#ffffff"><path id="SvgjsPath1114" d="M0 0H0V0H0V0Z " fill="#ffffff" transform="translate(0 0)"></path><text id="SvgjsText1115" font-family="Microsoft Yahei,宋体" fill="#000000" font-size="13" font-weight="normal" font-style="normal" text-anchor="middle" text-decoration="blink" x="0" y="0"></text></g></g><g id="SvgjsG1116"><path id="SvgjsPath1117" d="M301 226L301 245.5L278.25 245.5L278.25 249.76393127441406 " stroke-dasharray="none" stroke="#323232" stroke-width="2" fill="none" marker-end="url(#SvgjsMarker1118)"></path><g id="SvgjsG1120" transform="matrix(1 0 0 1 297.2430339887499 237.375)" fill="#ffffff"><path id="SvgjsPath1121" d="M0 0H0V0H0V0Z " fill="#ffffff" transform="translate(0 0)"></path><text id="SvgjsText1122" font-family="Microsoft Yahei,宋体" fill="#000000" font-size="13" font-weight="normal" font-style="normal" text-anchor="middle" text-decoration="blink" x="0" y="0"></text></g></g><g id="SvgjsG1123"><path id="SvgjsPath1124" d="M301 226L301 245.5L550 245.5L550 249.76393127441406 " stroke-dasharray="none" stroke="#323232" stroke-width="2" fill="none" marker-end="url(#SvgjsMarker1125)"></path><g id="SvgjsG1127" transform="matrix(1 0 0 1 417.8819660112501 237.375)" fill="#ffffff"><path id="SvgjsPath1128" d="M0 0H0V0H0V0Z " fill="#ffffff" transform="translate(0 0)"></path><text id="SvgjsText1129" font-family="Microsoft Yahei,宋体" fill="#000000" font-size="13" font-weight="normal" font-style="normal" text-anchor="middle" text-decoration="blink" x="0" y="0"></text></g></g><g id="SvgjsG1130"><path id="SvgjsPath1131" d="M278.25 295L278.25 316.5L278.75 316.5L278.75 322.7639465332031 " stroke-dasharray="none" stroke="#323232" stroke-width="2" fill="none" marker-end="url(#SvgjsMarker1132)"></path><g id="SvgjsG1134" transform="matrix(1 0 0 1 278.25 301.00696601125014)" fill="#ffffff"><path id="SvgjsPath1135" d="M0 0H0V0H0V0Z " fill="#ffffff" transform="translate(0 0)"></path><text id="SvgjsText1136" font-family="Microsoft Yahei,宋体" fill="#000000" font-size="13" font-weight="normal" font-style="normal" text-anchor="middle" text-decoration="blink" x="0" y="0"></text></g></g><g id="SvgjsG1137"><path id="SvgjsPath1138" d="M229 470L229 507L372.7639465332031 507 " stroke-dasharray="none" stroke="#323232" stroke-width="2" fill="none" marker-end="url(#SvgjsMarker1139)"></path><g id="SvgjsG1141" transform="matrix(1 0 0 1 282.38196601125014 498.875)" fill="#ffffff"><path id="SvgjsPath1142" d="M0 0H0V0H0V0Z " fill="#ffffff" transform="translate(0 0)"></path><text id="SvgjsText1143" font-family="Microsoft Yahei,宋体" fill="#000000" font-size="13" font-weight="normal" font-style="normal" text-anchor="middle" text-decoration="blink" x="0" y="0"></text></g></g><g id="SvgjsG1144"><path id="SvgjsPath1145" d="M550 365L550 507L488.2360534667969 507 " stroke-dasharray="none" stroke="#323232" stroke-width="2" fill="none" marker-end="url(#SvgjsMarker1146)"></path><g id="SvgjsG1148" transform="matrix(1 0 0 1 550 458.75696601125014)" fill="#ffffff"><path id="SvgjsPath1149" d="M0 0H0V0H0V0Z " fill="#ffffff" transform="translate(0 0)"></path><text id="SvgjsText1150" font-family="Microsoft Yahei,宋体" fill="#000000" font-size="13" font-weight="normal" font-style="normal" text-anchor="middle" text-decoration="blink" x="0" y="0"></text></g></g><g id="SvgjsG1151" transform="translate(278.25 397)" opacity="1"><path id="SvgjsPath1152" d="M0 4Q0 0 4 0L75 0Q79 0 79 4L79 26Q79 30 75 30L4 30Q0 30 0 26Z " stroke-dasharray="none" stroke="#323232" stroke-width="2" fill="#ffffff" opacity="1"></path><g id="SvgjsG1153" transform="matrix(1 0 0 1 10 6.875)" fill="#ffffff"><text id="SvgjsText1154" font-family="微软雅黑,黑体,Arial,宋体" fill="#000000" font-size="13" font-weight="normal" font-style="normal" text-anchor="middle" text-decoration="blink" x="29.5" y="14">Glumor</text></g></g><g id="SvgjsG1155"><path id="SvgjsPath1156" d="M357.25 412L435.125 412L435.125 349L497.7639465332031 349 " stroke-dasharray="none" stroke="#323232" stroke-width="2" fill="none" marker-end="url(#SvgjsMarker1157)"></path><g id="SvgjsG1159" transform="matrix(1 0 0 1 435.125 379.99303398874986)" fill="#ffffff"><path id="SvgjsPath1160" d="M0 0H0V0H0V0Z " fill="#ffffff" transform="translate(0 0)"></path><text id="SvgjsText1161" font-family="Microsoft Yahei,宋体" fill="#000000" font-size="13" font-weight="normal" font-style="normal" text-anchor="middle" text-decoration="blink" x="0" y="0"></text></g></g><g id="SvgjsG1162"><path id="SvgjsPath1163" d="M229 470L229 575L229 575L229 664.763916015625 " stroke-dasharray="none" stroke="#323232" stroke-width="2" fill="none" marker-end="url(#SvgjsMarker1164)"></path><g id="SvgjsG1166" transform="matrix(1 0 0 1 229 559.2569660112501)" fill="#ffffff"><path id="SvgjsPath1167" d="M0 0H0V0H0V0Z " fill="#ffffff" transform="translate(0 0)"></path><text id="SvgjsText1168" font-family="Microsoft Yahei,宋体" fill="#000000" font-size="13" font-weight="normal" font-style="normal" text-anchor="middle" text-decoration="blink" x="0" y="0"></text></g></g><g id="SvgjsG1169"><path id="SvgjsPath1170" d="M430.5 522L430.5 559.5L447.75 559.5L447.75 581.763916015625 " stroke-dasharray="none" stroke="#323232" stroke-width="2" fill="none" marker-end="url(#SvgjsMarker1171)"></path><g id="SvgjsG1173" transform="matrix(1 0 0 1 431.5069660112501 551.375)" fill="#ffffff"><path id="SvgjsPath1174" d="M0 0H0V0H0V0Z " fill="#ffffff" transform="translate(0 0)"></path><text id="SvgjsText1175" font-family="Microsoft Yahei,宋体" fill="#000000" font-size="13" font-weight="normal" font-style="normal" text-anchor="middle" text-decoration="blink" x="0" y="0"></text></g></g><g id="SvgjsG1176"><path id="SvgjsPath1177" d="M467.25 640.5L467.25 660.25L467 660.25L467 664.763916015625 " stroke-dasharray="none" stroke="#323232" stroke-width="2" fill="none" marker-end="url(#SvgjsMarker1178)"></path><g id="SvgjsG1180" transform="matrix(1 0 0 1 467.25 644.6319660112501)" fill="#ffffff"><path id="SvgjsPath1181" d="M0 0H0V0H0V0Z " fill="#ffffff" transform="translate(0 0)"></path><text id="SvgjsText1182" font-family="Microsoft Yahei,宋体" fill="#000000" font-size="13" font-weight="normal" font-style="normal" text-anchor="middle" text-decoration="blink" x="0" y="0"></text></g></g><g id="SvgjsG1183"><path id="SvgjsPath1184" d="M550 94L550 179.5L550 179.5L550 249.76393127441406 " stroke-dasharray="none" stroke="#323232" stroke-width="2" fill="none" marker-end="url(#SvgjsMarker1185)"></path><g id="SvgjsG1187" transform="matrix(1 0 0 1 550 163.75696601125009)" fill="#ffffff"><path id="SvgjsPath1188" d="M0 0H0V0H0V0Z " fill="#ffffff" transform="translate(0 0)"></path><text id="SvgjsText1189" font-family="Microsoft Yahei,宋体" fill="#000000" font-size="13" font-weight="normal" font-style="normal" text-anchor="middle" text-decoration="blink" x="0" y="0"></text></g></g><g id="SvgjsG1190"><path id="SvgjsPath1191" d="M550 94L550 118.5L467.25 118.5L467.25 127.76393127441406 " stroke-dasharray="none" stroke="#323232" stroke-width="2" fill="none" marker-end="url(#SvgjsMarker1192)"></path><g id="SvgjsG1194" transform="matrix(1 0 0 1 516.2430339887499 110.375)" fill="#ffffff"><path id="SvgjsPath1195" d="M0 0H0V0H0V0Z " fill="#ffffff" transform="translate(0 0)"></path><text id="SvgjsText1196" font-family="Microsoft Yahei,宋体" fill="#000000" font-size="13" font-weight="normal" font-style="normal" text-anchor="middle" text-decoration="blink" x="0" y="0"></text></g></g><g id="SvgjsG1197"><path id="SvgjsPath1198" d="M467.25 173L467.25 214L533.763916015625 214 " stroke-dasharray="none" stroke="#323232" stroke-width="2" fill="none" marker-end="url(#SvgjsMarker1199)"></path><g id="SvgjsG1201" transform="matrix(1 0 0 1 480.0069660112501 205.875)" fill="#ffffff"><path id="SvgjsPath1202" d="M0 0H0V0H0V0Z " fill="#ffffff" transform="translate(0 0)"></path><text id="SvgjsText1203" font-family="Microsoft Yahei,宋体" fill="#000000" font-size="13" font-weight="normal" font-style="normal" text-anchor="middle" text-decoration="blink" x="0" y="0"></text></g></g><g id="SvgjsG1204"><path id="SvgjsPath1205" d="M467.25 173L467.25 255.5L352 255.5L352 322.7639465332031 " stroke-dasharray="10 4" stroke="#323232" stroke-width="2" fill="none" marker-end="url(#SvgjsMarker1206)"></path><g id="SvgjsG1208" transform="matrix(1 0 0 1 417.24303398874986 247.375)" fill="#ffffff"><path id="SvgjsPath1209" d="M0 0H0V0H0V0Z " fill="#ffffff" transform="translate(0 0)"></path><text id="SvgjsText1210" font-family="Microsoft Yahei,宋体" fill="#000000" font-size="13" font-weight="normal" font-style="normal" text-anchor="middle" text-decoration="blink" x="0" y="0"></text></g></g></g></g></svg>